<mxfile host="app.diagrams.net" modified="2023-04-21T02:05:17.203Z" agent="Mozilla/5.0 (Windows NT 10.0; WOW64) AppleWebKit/537.36 (KHTML, like Gecko) Chrome/94.0.4606.71 Safari/537.36 Core/1.94.192.400 QQBrowser/11.5.5250.400" version="21.2.1" etag="32BfLAuIL6tGpcFU7twa" type="github">
  <diagram name="第 1 页" id="mAl0vw0Y8gC74cQT9lLG">
    <mxGraphModel>
      <root>
        <mxCell id="0" />
        <mxCell id="1" parent="0" />
      </root>
    </mxGraphModel>
  </diagram>
</mxfile>
